<svg xmlns="http://www.w3.org/2000/svg" version="1.1" xmlns:xlink="http://www.w3.org/1999/xlink" xmlns:svgjs="http://svgjs.dev/svgjs" width="2000" height="323" viewBox="0 0 2000 323"><g transform="matrix(1,0,0,1,-1.2121212121212466,-0.9007843115123251)"><svg viewBox="0 0 396 64" data-background-color="#000000" preserveAspectRatio="xMidYMid meet" height="323" width="2000" xmlns="http://www.w3.org/2000/svg" xmlns:xlink="http://www.w3.org/1999/xlink"><g id="tight-bounds" transform="matrix(1,0,0,1,0.2400000000000091,0.17848357875166698)"><svg viewBox="0 0 395.52 63.643032842496666" height="63.643032842496666" width="395.52"><g><svg viewBox="0 0 487.3316804374683 78.41642936708861" height="63.643032842496666" width="395.52"><g transform="matrix(1,0,0,1,91.81168043746834,10.837581772151903)"><svg viewBox="0 0 395.52 56.741265822784804" height="56.741265822784804" width="395.52"><g id="textblocktransform"><svg viewBox="0 0 395.52 56.741265822784804" height="56.741265822784804" width="395.52" id="textblock"><g><svg viewBox="0 0 395.52 56.741265822784804" height="56.741265822784804" width="395.52"><g transform="matrix(1,0,0,1,0,0)"><svg width="395.52" viewBox="2.88 -37.94 266.14 38.18" height="56.741265822784804" data-palette-color="url(#fda52103-e928-4fc5-9b25-cd42090d9a02)"></svg></g></svg></g></svg></g></svg></g><g><svg viewBox="0 0 78.4164293670886 78.41642936708861" height="78.41642936708861" width="78.4164293670886"><g><svg></svg></g><g id="icon-0"><svg viewBox="0 0 78.4164293670886 78.41642936708861" height="78.41642936708861" width="78.4164293670886"><g></g><g transform="matrix(1,0,0,1,15.683285873417717,15.845147386647174)"><svg viewBox="0 0 47.049857620253164 46.726134593794264" height="46.726134593794264" width="47.049857620253164"><g><svg xmlns="http://www.w3.org/2000/svg" xmlns:xlink="http://www.w3.org/1999/xlink" version="1.1" x="0" y="0" viewBox="4.939530200000002 5.0296851 91.11885980000001 90.4919233" enable-background="new 0 0 100 100" xml:space="preserve" height="46.726134593794264" width="47.049857620253164" class="icon-dxe-0" data-fill-palette-color="quaternary" id="dxe-0"><g fill="#000000" data-fill-palette-color="quaternary"><g fill="#000000" data-fill-palette-color="quaternary"><line fill-rule="evenodd" clip-rule="evenodd" x1="14.917" y1="22.236" x2="56.296" y2="95.38" fill="#000000" data-fill-palette-color="quaternary"></line><rect x="-6.412" y="58.526" transform="matrix(0.4924 0.8704 -0.8704 0.4924 69.2593 -1.1396)" width="84.037" height="0.565" fill="#000000" data-fill-palette-color="quaternary"></rect></g><g fill="#000000" data-fill-palette-color="quaternary"><line fill-rule="evenodd" clip-rule="evenodd" x1="6.763" y1="37.748" x2="38.881" y2="94.199" fill="#000000" data-fill-palette-color="quaternary"></line><rect x="-9.652" y="65.692" transform="matrix(0.4945 0.8692 -0.8692 0.4945 68.8793 13.513)" width="64.948" height="0.564" fill="#000000" data-fill-palette-color="quaternary"></rect></g><g fill="#000000" data-fill-palette-color="quaternary"><line fill-rule="evenodd" clip-rule="evenodd" x1="25.763" y1="12.567" x2="70.402" y2="90.856" fill="#000000" data-fill-palette-color="quaternary"></line><rect x="3.022" y="51.429" transform="matrix(0.4953 0.8687 -0.8687 0.4953 69.1881 -15.6719)" width="90.121" height="0.564" fill="#000000" data-fill-palette-color="quaternary"></rect></g><g fill="#000000" data-fill-palette-color="quaternary"><line fill-rule="evenodd" clip-rule="evenodd" x1="39.04" y1="6.387" x2="82.534" y2="82.844" fill="#000000" data-fill-palette-color="quaternary"></line><rect x="16.806" y="44.333" transform="matrix(0.4945 0.8692 -0.8692 0.4945 69.5104 -30.2815)" width="87.962" height="0.564" fill="#000000" data-fill-palette-color="quaternary"></rect></g><g fill="#000000" data-fill-palette-color="quaternary"><line fill-rule="evenodd" clip-rule="evenodd" x1="54.799" y1="5.293" x2="91.621" y2="69.552" fill="#000000" data-fill-palette-color="quaternary"></line><rect x="36.179" y="37.14" transform="matrix(0.4972 0.8676 -0.8676 0.4972 69.2802 -44.7036)" width="74.061" height="0.565" fill="#000000" data-fill-palette-color="quaternary"></rect></g><g fill="#000000" data-fill-palette-color="quaternary"><line fill-rule="evenodd" clip-rule="evenodd" x1="75.579" y1="12.586" x2="95.811" y2="47.362" fill="#000000" data-fill-palette-color="quaternary"></line><rect x="65.578" y="29.692" transform="matrix(0.5029 0.8644 -0.8644 0.5029 68.5113 -59.1708)" width="40.234" height="0.565" fill="#000000" data-fill-palette-color="quaternary"></rect></g><g fill="#000000" data-fill-palette-color="quaternary"><line fill-rule="evenodd" clip-rule="evenodd" x1="25.534" y1="12.567" x2="75.706" y2="12.567" fill="#000000" data-fill-palette-color="quaternary"></line><rect x="25.534" y="12.285" width="50.172" height="0.565" fill="#000000" data-fill-palette-color="quaternary"></rect></g><g fill="#000000" data-fill-palette-color="quaternary"><line fill-rule="evenodd" clip-rule="evenodd" x1="10.974" y1="27.32" x2="89.456" y2="27.134" fill="#000000" data-fill-palette-color="quaternary"></line><rect x="10.974" y="26.945" width="78.483" height="0.565" fill="#000000" data-fill-palette-color="quaternary"></rect></g><g fill="#000000" data-fill-palette-color="quaternary"><line fill-rule="evenodd" clip-rule="evenodd" x1="5.833" y1="41.534" x2="95.233" y2="41.534" fill="#000000" data-fill-palette-color="quaternary"></line><rect x="5.833" y="41.252" width="89.4" height="0.565" fill="#000000" data-fill-palette-color="quaternary"></rect></g><g fill="#000000" data-fill-palette-color="quaternary"><line fill-rule="evenodd" clip-rule="evenodd" x1="5.709" y1="56.185" x2="95.291" y2="56.185" fill="#000000" data-fill-palette-color="quaternary"></line><rect x="5.709" y="55.9" width="89.583" height="0.569" fill="#000000" data-fill-palette-color="quaternary"></rect></g><g fill="#000000" data-fill-palette-color="quaternary"><line fill-rule="evenodd" clip-rule="evenodd" x1="9.848" y1="70.712" x2="91.075" y2="70.606" fill="#000000" data-fill-palette-color="quaternary"></line><rect x="9.848" y="70.374" width="81.227" height="0.57" fill="#000000" data-fill-palette-color="quaternary"></rect></g><g fill="#000000" data-fill-palette-color="quaternary"><line fill-rule="evenodd" clip-rule="evenodd" x1="21.646" y1="85.209" x2="79.573" y2="85.209" fill="#000000" data-fill-palette-color="quaternary"></line><rect x="21.646" y="84.927" width="57.927" height="0.565" fill="#000000" data-fill-palette-color="quaternary"></rect></g><g fill="#000000" data-fill-palette-color="quaternary"><line fill-rule="evenodd" clip-rule="evenodd" x1="5.197" y1="48.892" x2="25.763" y2="12.338" fill="#000000" data-fill-palette-color="quaternary"></line><rect x="15.198" y="9.644" transform="matrix(0.8712 0.4909 -0.4909 0.8712 17.0226 -3.6563)" width="0.565" height="41.942" fill="#000000" data-fill-palette-color="quaternary"></rect></g><g fill="#000000" data-fill-palette-color="quaternary"><line fill-rule="evenodd" clip-rule="evenodd" x1="9.441" y1="70.058" x2="46.402" y2="5.17" fill="#000000" data-fill-palette-color="quaternary"></line><rect x="27.639" y="0.276" transform="matrix(0.869 0.4949 -0.4949 0.869 22.2727 -8.8887)" width="0.564" height="74.676" fill="#000000" data-fill-palette-color="quaternary"></rect></g><g fill="#000000" data-fill-palette-color="quaternary"><line fill-rule="evenodd" clip-rule="evenodd" x1="18.739" y1="82.841" x2="62.32" y2="6.543" fill="#000000" data-fill-palette-color="quaternary"></line><rect x="40.247" y="0.758" transform="matrix(0.8682 0.4961 -0.4961 0.8682 27.5135 -14.2198)" width="0.564" height="87.867" fill="#000000" data-fill-palette-color="quaternary"></rect></g><g fill="#000000" data-fill-palette-color="quaternary"><line fill-rule="evenodd" clip-rule="evenodd" x1="30.396" y1="90.889" x2="75.615" y2="12.477" fill="#000000" data-fill-palette-color="quaternary"></line><rect x="52.723" y="6.425" transform="matrix(0.866 0.5001 -0.5001 0.866 32.9518 -19.5809)" width="0.564" height="90.517" fill="#000000" data-fill-palette-color="quaternary"></rect></g><g fill="#000000" data-fill-palette-color="quaternary"><line fill-rule="evenodd" clip-rule="evenodd" x1="44.341" y1="95.257" x2="86.832" y2="22.847" fill="#000000" data-fill-palette-color="quaternary"></line><rect x="65.305" y="17.074" transform="matrix(0.8622 0.5066 -0.5066 0.8622 38.9529 -25.0874)" width="0.564" height="83.956" fill="#000000" data-fill-palette-color="quaternary"></rect></g><g fill="#000000" data-fill-palette-color="quaternary"><line fill-rule="evenodd" clip-rule="evenodd" x1="61.862" y1="94.323" x2="94.176" y2="38.519" fill="#000000" data-fill-palette-color="quaternary"></line><rect x="77.737" y="34.179" transform="matrix(0.8652 0.5014 -0.5014 0.8652 43.8154 -30.1648)" width="0.564" height="64.484" fill="#000000" data-fill-palette-color="quaternary"></rect></g><g fill="#000000" data-fill-palette-color="quaternary"><polygon fill-rule="evenodd" clip-rule="evenodd" points="84.254,27.384 92.41,41.609 67.145,85.232 25.843,12.586 42.453,12.312     67.337,56.188 84.254,27.384   " fill="#000000" data-fill-palette-color="quaternary"></polygon><path d="M67.144 85.442L67.054 85.284 25.665 12.484 42.514 12.206 42.544 12.26 67.338 55.979 84.254 27.175 92.53 41.609 92.5 41.661zM26.021 12.687L67.146 85.022 92.289 41.608 84.253 27.592 67.335 56.397 67.246 56.239 42.393 12.417z" fill="#000000" data-fill-palette-color="quaternary"></path></g></g></svg></g></svg></g></svg></g></svg></g></svg></g><defs></defs><mask id="8e2d0896-0f42-45f7-9990-fd3df7d21fe2"><g id="SvgjsG2423"><svg viewBox="0 0 395.52 63.643032842496666" height="63.643032842496666" width="395.52"><g><svg viewBox="0 0 487.3316804374683 78.41642936708861" height="63.643032842496666" width="395.52"><g transform="matrix(1,0,0,1,91.81168043746834,10.837581772151903)"><svg viewBox="0 0 395.52 56.741265822784804" height="56.741265822784804" width="395.52"><g id="SvgjsG2422"><svg viewBox="0 0 395.52 56.741265822784804" height="56.741265822784804" width="395.52" id="SvgjsSvg2421"><g><svg viewBox="0 0 395.52 56.741265822784804" height="56.741265822784804" width="395.52"><g transform="matrix(1,0,0,1,0,0)"><svg width="395.52" viewBox="2.88 -37.94 266.14 38.18" height="56.741265822784804" data-palette-color="url(#fda52103-e928-4fc5-9b25-cd42090d9a02)"><path d="M12.55 0.2L2.88-27.54 9.57-27.54 15.38-7.96 15.38 0.2 12.55 0.2ZM17.38-7.96L23.24-27.54 29.88-27.54 20.21 0.2 17.38 0.2 17.38-7.96ZM49.27-23.19L49.27-27.78Q51.9-27.54 54.03-26.37 56.15-25.2 57.66-23.34 59.18-21.48 59.98-19.09 60.79-16.7 60.79-14.11L60.79-14.11Q60.79-12.94 60.64-11.77L60.64-11.77 43.89-11.77 43.89-16.06 55.17-16.06Q55.17-17.33 54.76-18.51 54.34-19.68 53.54-20.68 52.73-21.68 51.66-22.36 50.58-23.05 49.27-23.19L49.27-23.19ZM49.07-4.59L49.07-4.59Q49.61-4.59 50.41-4.71 51.22-4.83 52.12-5.15 53.02-5.47 53.93-5.96 54.83-6.45 55.52-7.13L55.52-7.13 57.66-3.86Q56.05-1.86 53.9-0.83 51.76 0.2 48.44 0.2L48.44 0.2Q45.75 0.2 43.41-0.9 41.06-2 39.4-3.91 37.74-5.81 36.77-8.35 35.79-10.89 35.79-13.82L35.79-13.82Q35.79-16.6 36.69-19.09 37.6-21.58 39.16-23.46 40.72-25.34 42.8-26.51 44.87-27.69 47.26-27.83L47.26-27.83 47.26-23.14Q45.46-22.8 44.28-21.68 43.11-20.56 42.45-19.12 41.79-17.68 41.53-16.16 41.26-14.65 41.26-13.57L41.26-13.57Q41.26-11.67 41.72-10.03 42.19-8.4 43.16-7.2 44.14-6.01 45.58-5.3 47.02-4.59 49.07-4.59ZM89.84-23.58L87.2-20.41Q86.47-21.29 85.18-22.05 83.88-22.8 81.73-22.95L81.73-22.95 81.73-27.64Q84.42-27.49 86.35-26.49 88.28-25.49 89.84-23.58L89.84-23.58ZM81.73 0.2L81.73-4.64Q83.49-4.83 84.74-5.49 85.98-6.15 87.1-7.03L87.1-7.03 89.3-3.86Q87.79-1.95 86.03-0.95 84.27 0.05 81.73 0.2L81.73 0.2ZM68.11-13.77L68.11-13.77Q68.11-16.55 68.92-18.99 69.72-21.44 71.28-23.29 72.85-25.15 74.97-26.29 77.09-27.44 79.73-27.64L79.73-27.64 79.73-22.9Q77.29-22.36 75.83-19.9 74.36-17.43 74.36-13.92L74.36-13.92Q74.36-12.11 74.73-10.52 75.09-8.94 75.78-7.71 76.46-6.49 77.46-5.66 78.46-4.83 79.73-4.64L79.73-4.64 79.73 0.2Q77.05 0.05 74.9-1.1 72.75-2.25 71.24-4.13 69.72-6.01 68.92-8.5 68.11-10.99 68.11-13.77ZM105.31-23.54L105.31-8.35Q105.31-6.69 105.75-5.76 106.19-4.83 107-4.35 107.81-3.86 108.81-3.74 109.81-3.61 110.93-3.61L110.93-3.61 110.93 0Q110.3 0.1 109.66 0.15L109.66 0.15Q109.12 0.2 108.37 0.22 107.61 0.24 106.88 0.24L106.88 0.24Q106.14 0.24 105.39 0.2 104.63 0.15 104.09 0.05L104.09 0.05Q102.43-0.24 101.51-1.39 100.58-2.54 100.11-3.93 99.65-5.32 99.53-6.64 99.41-7.96 99.41-8.69L99.41-8.69 99.41-23.54 95.79-23.54 95.79-27.54 99.41-27.54 99.41-35.35 105.31-35.35 105.31-27.54 109.71-27.54 109.71-23.54 105.31-23.54ZM130.8-23.1L130.8-27.69Q133.49-27.54 135.68-26.39 137.88-25.24 139.37-23.36 140.86-21.48 141.69-18.99 142.52-16.5 142.52-13.67L142.52-13.67Q142.52-10.84 141.66-8.37 140.81-5.91 139.3-4.08 137.78-2.25 135.59-1.12 133.39 0 130.8 0.2L130.8 0.2 130.8-4.49Q133.24-5.03 134.78-7.57 136.32-10.11 136.32-13.67L136.32-13.67Q136.32-15.48 135.95-17.07 135.59-18.65 134.85-19.92 134.12-21.19 133.1-22.02 132.07-22.85 130.8-23.1L130.8-23.1ZM117.18-13.77L117.18-13.77Q117.18-16.6 118.01-19.04 118.84-21.48 120.38-23.32 121.91-25.15 124.06-26.27 126.21-27.39 128.8-27.64L128.8-27.64 128.8-23.1Q126.36-22.56 124.89-20.02 123.43-17.48 123.43-13.92L123.43-13.92Q123.43-12.11 123.79-10.5 124.16-8.89 124.84-7.62 125.53-6.35 126.53-5.52 127.53-4.69 128.8-4.49L128.8-4.49 128.8 0.2Q126.11 0 123.96-1.15 121.82-2.29 120.3-4.15 118.79-6.01 117.98-8.5 117.18-10.99 117.18-13.77ZM150.18-27.54L155.46-27.54 156.09-24.71 156.09-9.77 156.09-9.67 156.09 0 150.18 0 150.18-27.54ZM158.09-21.34L158.09-26.32Q159.31-27 161.02-27.37 162.73-27.73 165.66-27.73L165.66-27.73 165.66-21.58Q164.29-21.97 162.34-22.02L162.34-22.02Q161.27-22.02 160.17-21.85 159.07-21.68 158.09-21.34L158.09-21.34ZM177.82-37.94L177.82-8.4Q177.82-6.74 178.26-5.79 178.7-4.83 179.48-4.37 180.26-3.91 181.26-3.76 182.26-3.61 183.43-3.61L183.43-3.61 183.43 0Q182.8 0.1 182.11 0.15L182.11 0.15Q181.58 0.2 180.84 0.22 180.11 0.24 179.38 0.24L179.38 0.24Q178.65 0.24 177.91 0.2 177.18 0.15 176.6 0.05L176.6 0.05Q174.94-0.29 174.01-1.42 173.08-2.54 172.59-3.93 172.1-5.32 171.98-6.64 171.86-7.96 171.86-8.69L171.86-8.69 171.86-9.28 171.86-37.94 177.82-37.94ZM194.46-8.3L194.46-8.3Q194.46-6.1 195.37-5.03 196.27-3.96 197.98-3.76L197.98-3.76 197.98 0.2Q197.79 0.24 197.35 0.24L197.35 0.24Q195.69 0.24 194.15-0.2 192.61-0.63 191.44-1.61 190.27-2.59 189.61-4.2 188.95-5.81 188.95-8.15L188.95-8.15Q188.95-10.4 189.9-12.04 190.85-13.67 192.34-14.72 193.83-15.77 195.73-16.28 197.64-16.8 199.59-16.8L199.59-16.8 201.74-16.8 201.74-13.33 200.67-13.33Q199.69-13.33 198.62-13.13 197.54-12.94 196.61-12.4 195.69-11.87 195.08-10.86 194.46-9.86 194.46-8.3ZM209.65-8.54L209.65-8.15Q209.65-7.76 209.7-7.01 209.75-6.25 209.89-5.47 210.04-4.69 210.36-4.05 210.68-3.42 211.21-3.22L211.21-3.22 209.65 0.05Q209.02 0.05 208.31-0.24 207.6-0.54 206.94-1.07 206.28-1.61 205.82-2.27 205.35-2.93 205.11-3.71L205.11-3.71Q204.62-2.49 203.18-1.54 201.74-0.59 199.98-0.15L199.98-0.15 199.98-3.86Q201.15-4.1 202.11-4.81 203.06-5.52 203.74-6.49L203.74-6.49 203.74-16.8Q203.74-19.19 203.5-20.61 203.25-22.02 202.67-22.68 202.08-23.34 201.23-23.51 200.37-23.68 199.2-23.68L199.2-23.68Q198.13-23.68 197.17-23.41 196.22-23.14 195.42-22.78 194.61-22.41 194-21.97 193.39-21.53 193.1-21.29L193.1-21.29 190.9-24.66Q191.39-25.2 192.37-25.76 193.34-26.32 194.61-26.76 195.88-27.2 197.37-27.47 198.86-27.73 200.47-27.73L200.47-27.73Q201.94-27.73 203.33-27.44 204.72-27.15 205.87-26.46 207.01-25.78 207.87-24.63 208.72-23.49 209.06-21.78L209.06-21.78Q209.41-20.07 209.53-18.33 209.65-16.6 209.65-14.89L209.65-14.89 209.65-8.54ZM219.22 0L219.22-37.94 225.13-37.94 225.13-3.27Q225.08-2.59 224.98-1.71 224.88-0.83 224.83 0L224.83 0 219.22 0ZM243.29-19.19L243.29-19.19Q243.88-16.94 243.88-14.26L243.88-14.26Q243.88-11.47 243.22-8.84 242.56-6.2 241.22-4.17 239.87-2.15 237.85-0.95 235.82 0.24 233.09 0.24L233.09 0.24Q231.38 0.24 229.81-0.15 228.25-0.54 227.13-1.22L227.13-1.22 227.13-6.3Q227.86-5.47 228.86-4.93 229.86-4.39 231.08-4.39L231.08-4.39Q232.55-4.39 233.74-5.13 234.94-5.86 235.8-7.1 236.65-8.35 237.16-10.06 237.68-11.77 237.68-13.72L237.68-13.72Q237.68-15.63 237.21-17.33 236.75-19.04 235.94-20.36 235.14-21.68 233.96-22.46 232.79-23.24 231.33-23.24L231.33-23.24Q230.06-23.24 229.01-22.73 227.96-22.22 227.13-21.24L227.13-21.24 227.13-26.46Q228.25-27.1 229.62-27.44 230.99-27.78 232.45-27.78L232.45-27.78Q234.06-27.78 235.72-27.34 237.38-26.9 238.82-25.88 240.26-24.85 241.46-23.19 242.66-21.53 243.29-19.19ZM249.88-19.68L249.88-19.68Q249.88-21.53 250.56-23.02 251.25-24.51 252.47-25.56 253.69-26.61 255.23-27.22 256.76-27.83 258.42-27.98L258.42-27.98 258.42-23.1Q257.16-22.85 256.45-22.07 255.74-21.29 255.74-19.87L255.74-19.87Q255.74-18.7 256.5-17.99 257.25-17.29 258.42-16.75L258.42-16.75 258.42-11.52Q257.59-11.77 256.74-12.08 255.89-12.4 255.06-12.79L255.06-12.79Q252.47-14.16 251.17-15.67 249.88-17.19 249.88-19.68ZM268.09-25.78L266.19-21.73Q264.87-22.41 263.38-22.75 261.89-23.1 260.43-23.19L260.43-23.19 260.43-28.03Q262.62-27.93 264.48-27.42 266.33-26.9 268.09-25.78L268.09-25.78ZM249.98-2.2L252.47-6.15Q253.44-5.47 254.79-4.88 256.13-4.3 258.18-4.3L258.18-4.3 258.42-4.3 258.42 0.24Q257.2 0.24 256.18 0.17 255.15 0.1 254.15-0.17 253.15-0.44 252.13-0.93 251.1-1.42 249.98-2.2L249.98-2.2ZM260.43-10.79L260.43-15.97Q261.89-15.48 263.41-14.89 264.92-14.31 266.16-13.43 267.41-12.55 268.21-11.25 269.02-9.96 269.02-8.01L269.02-8.01Q269.02-6.1 268.34-4.69 267.65-3.27 266.51-2.25 265.36-1.22 263.8-0.63 262.23-0.05 260.43 0.15L260.43 0.15 260.43-4.49Q262.09-4.79 262.99-5.54 263.89-6.3 263.89-7.57L263.89-7.57Q263.89-8.84 262.89-9.55 261.89-10.25 260.43-10.79L260.43-10.79Z" opacity="1" transform="matrix(1,0,0,1,0,0)" fill="white" class="wordmark-text-0" id="SvgjsPath2420"></path></svg></g></svg></g></svg></g></svg></g><g><svg viewBox="0 0 78.4164293670886 78.41642936708861" height="78.41642936708861" width="78.4164293670886"><g><svg></svg></g><g id="SvgjsG2419"><svg viewBox="0 0 78.4164293670886 78.41642936708861" height="78.41642936708861" width="78.4164293670886"><g><path transform="scale(0.78416,0.78416)" d="M30 100c-16.569 0-30-13.431-30-30v-40c0-16.569 13.431-30 30-30h40c16.569 0 30 13.431 30 30v40c0 16.569-13.431 30-30 30z" fill="black" fill-rule="nonzero" stroke="none" stroke-width="1" stroke-linecap="butt" stroke-linejoin="miter" stroke-miterlimit="10" stroke-dasharray="" stroke-dashoffset="0" font-family="none" font-weight="none" font-size="none" text-anchor="none" style="mix-blend-mode: normal"></path></g><g transform="matrix(1,0,0,1,15.683285873417717,15.845147386647174)"><svg viewBox="0 0 47.049857620253164 46.726134593794264" height="46.726134593794264" width="47.049857620253164"><g><svg xmlns="http://www.w3.org/2000/svg" xmlns:xlink="http://www.w3.org/1999/xlink" version="1.1" x="0" y="0" viewBox="4.939530200000002 5.0296851 91.11885980000001 90.4919233" enable-background="new 0 0 100 100" xml:space="preserve" height="46.726134593794264" width="47.049857620253164" class="icon-dxe-0" data-fill-palette-color="quaternary" id="SvgjsSvg2418"><g fill="black"><g fill="black"><line fill-rule="evenodd" clip-rule="evenodd" x1="14.917" y1="22.236" x2="56.296" y2="95.38" fill="black"></line><rect x="-6.412" y="58.526" transform="matrix(0.4924 0.8704 -0.8704 0.4924 69.2593 -1.1396)" width="84.037" height="0.565" fill="black"></rect></g><g fill="black"><line fill-rule="evenodd" clip-rule="evenodd" x1="6.763" y1="37.748" x2="38.881" y2="94.199" fill="black"></line><rect x="-9.652" y="65.692" transform="matrix(0.4945 0.8692 -0.8692 0.4945 68.8793 13.513)" width="64.948" height="0.564" fill="black"></rect></g><g fill="black"><line fill-rule="evenodd" clip-rule="evenodd" x1="25.763" y1="12.567" x2="70.402" y2="90.856" fill="black"></line><rect x="3.022" y="51.429" transform="matrix(0.4953 0.8687 -0.8687 0.4953 69.1881 -15.6719)" width="90.121" height="0.564" fill="black"></rect></g><g fill="black"><line fill-rule="evenodd" clip-rule="evenodd" x1="39.04" y1="6.387" x2="82.534" y2="82.844" fill="black"></line><rect x="16.806" y="44.333" transform="matrix(0.4945 0.8692 -0.8692 0.4945 69.5104 -30.2815)" width="87.962" height="0.564" fill="black"></rect></g><g fill="black"><line fill-rule="evenodd" clip-rule="evenodd" x1="54.799" y1="5.293" x2="91.621" y2="69.552" fill="black"></line><rect x="36.179" y="37.14" transform="matrix(0.4972 0.8676 -0.8676 0.4972 69.2802 -44.7036)" width="74.061" height="0.565" fill="black"></rect></g><g fill="black"><line fill-rule="evenodd" clip-rule="evenodd" x1="75.579" y1="12.586" x2="95.811" y2="47.362" fill="black"></line><rect x="65.578" y="29.692" transform="matrix(0.5029 0.8644 -0.8644 0.5029 68.5113 -59.1708)" width="40.234" height="0.565" fill="black"></rect></g><g fill="black"><line fill-rule="evenodd" clip-rule="evenodd" x1="25.534" y1="12.567" x2="75.706" y2="12.567" fill="black"></line><rect x="25.534" y="12.285" width="50.172" height="0.565" fill="black"></rect></g><g fill="black"><line fill-rule="evenodd" clip-rule="evenodd" x1="10.974" y1="27.32" x2="89.456" y2="27.134" fill="black"></line><rect x="10.974" y="26.945" width="78.483" height="0.565" fill="black"></rect></g><g fill="black"><line fill-rule="evenodd" clip-rule="evenodd" x1="5.833" y1="41.534" x2="95.233" y2="41.534" fill="black"></line><rect x="5.833" y="41.252" width="89.4" height="0.565" fill="black"></rect></g><g fill="black"><line fill-rule="evenodd" clip-rule="evenodd" x1="5.709" y1="56.185" x2="95.291" y2="56.185" fill="black"></line><rect x="5.709" y="55.9" width="89.583" height="0.569" fill="black"></rect></g><g fill="black"><line fill-rule="evenodd" clip-rule="evenodd" x1="9.848" y1="70.712" x2="91.075" y2="70.606" fill="black"></line><rect x="9.848" y="70.374" width="81.227" height="0.57" fill="black"></rect></g><g fill="black"><line fill-rule="evenodd" clip-rule="evenodd" x1="21.646" y1="85.209" x2="79.573" y2="85.209" fill="black"></line><rect x="21.646" y="84.927" width="57.927" height="0.565" fill="black"></rect></g><g fill="black"><line fill-rule="evenodd" clip-rule="evenodd" x1="5.197" y1="48.892" x2="25.763" y2="12.338" fill="black"></line><rect x="15.198" y="9.644" transform="matrix(0.8712 0.4909 -0.4909 0.8712 17.0226 -3.6563)" width="0.565" height="41.942" fill="black"></rect></g><g fill="black"><line fill-rule="evenodd" clip-rule="evenodd" x1="9.441" y1="70.058" x2="46.402" y2="5.17" fill="black"></line><rect x="27.639" y="0.276" transform="matrix(0.869 0.4949 -0.4949 0.869 22.2727 -8.8887)" width="0.564" height="74.676" fill="black"></rect></g><g fill="black"><line fill-rule="evenodd" clip-rule="evenodd" x1="18.739" y1="82.841" x2="62.32" y2="6.543" fill="black"></line><rect x="40.247" y="0.758" transform="matrix(0.8682 0.4961 -0.4961 0.8682 27.5135 -14.2198)" width="0.564" height="87.867" fill="black"></rect></g><g fill="black"><line fill-rule="evenodd" clip-rule="evenodd" x1="30.396" y1="90.889" x2="75.615" y2="12.477" fill="black"></line><rect x="52.723" y="6.425" transform="matrix(0.866 0.5001 -0.5001 0.866 32.9518 -19.5809)" width="0.564" height="90.517" fill="black"></rect></g><g fill="black"><line fill-rule="evenodd" clip-rule="evenodd" x1="44.341" y1="95.257" x2="86.832" y2="22.847" fill="black"></line><rect x="65.305" y="17.074" transform="matrix(0.8622 0.5066 -0.5066 0.8622 38.9529 -25.0874)" width="0.564" height="83.956" fill="black"></rect></g><g fill="black"><line fill-rule="evenodd" clip-rule="evenodd" x1="61.862" y1="94.323" x2="94.176" y2="38.519" fill="black"></line><rect x="77.737" y="34.179" transform="matrix(0.8652 0.5014 -0.5014 0.8652 43.8154 -30.1648)" width="0.564" height="64.484" fill="black"></rect></g><g fill="black"><polygon fill-rule="evenodd" clip-rule="evenodd" points="84.254,27.384 92.41,41.609 67.145,85.232 25.843,12.586 42.453,12.312     67.337,56.188 84.254,27.384   " fill="black"></polygon><path d="M67.144 85.442L67.054 85.284 25.665 12.484 42.514 12.206 42.544 12.26 67.338 55.979 84.254 27.175 92.53 41.609 92.5 41.661zM26.021 12.687L67.146 85.022 92.289 41.608 84.253 27.592 67.335 56.397 67.246 56.239 42.393 12.417z" fill="black"></path></g></g></svg></g></svg></g></svg></g></svg></g></svg></g><defs><mask></mask></defs></svg><rect width="395.52" height="63.643032842496666" fill="black" stroke="none" visibility="hidden"></rect></g></mask><linearGradient x1="0" x2="1" y1="0.548" y2="0.55" id="fda52103-e928-4fc5-9b25-cd42090d9a02"><stop stop-color="#ff6cab" offset="0"></stop><stop stop-color="#7366ff" offset="1"></stop></linearGradient><rect width="395.52" height="63.643032842496666" fill="url(#fda52103-e928-4fc5-9b25-cd42090d9a02)" mask="url(#8e2d0896-0f42-45f7-9990-fd3df7d21fe2)" data-fill-palette-color="primary"></rect><mask id="1cc84d78-0fac-4fac-9485-68b2de555619"><g id="SvgjsG2446"><svg viewBox="0 0 395.52 63.643032842496666" height="63.643032842496666" width="395.52"><g><svg viewBox="0 0 487.3316804374683 78.41642936708861" height="63.643032842496666" width="395.52"><g transform="matrix(1,0,0,1,91.81168043746834,10.837581772151903)"><svg viewBox="0 0 395.52 56.741265822784804" height="56.741265822784804" width="395.52"><g id="SvgjsG2445"><svg viewBox="0 0 395.52 56.741265822784804" height="56.741265822784804" width="395.52" id="SvgjsSvg2444"><g><svg viewBox="0 0 395.52 56.741265822784804" height="56.741265822784804" width="395.52"><g transform="matrix(1,0,0,1,0,0)"><svg width="395.52" viewBox="2.88 -37.94 266.14 38.18" height="56.741265822784804" data-palette-color="url(#fda52103-e928-4fc5-9b25-cd42090d9a02)"></svg></g></svg></g></svg></g></svg></g><g><svg viewBox="0 0 78.4164293670886 78.41642936708861" height="78.41642936708861" width="78.4164293670886"><g><svg></svg></g><g id="SvgjsG2443"><svg viewBox="0 0 78.4164293670886 78.41642936708861" height="78.41642936708861" width="78.4164293670886"><g><path transform="scale(0.78416,0.78416)" d="M30 100c-16.569 0-30-13.431-30-30v-40c0-16.569 13.431-30 30-30h40c16.569 0 30 13.431 30 30v40c0 16.569-13.431 30-30 30z" fill="white" fill-rule="nonzero" stroke="none" stroke-width="1" stroke-linecap="butt" stroke-linejoin="miter" stroke-miterlimit="10" stroke-dasharray="" stroke-dashoffset="0" font-family="none" font-weight="none" font-size="none" text-anchor="none" style="mix-blend-mode: normal"></path></g><g transform="matrix(1,0,0,1,15.683285873417717,15.845147386647174)"><svg viewBox="0 0 47.049857620253164 46.726134593794264" height="46.726134593794264" width="47.049857620253164"><g><svg xmlns="http://www.w3.org/2000/svg" xmlns:xlink="http://www.w3.org/1999/xlink" version="1.1" x="0" y="0" viewBox="4.939530200000002 5.0296851 91.11885980000001 90.4919233" enable-background="new 0 0 100 100" xml:space="preserve" height="46.726134593794264" width="47.049857620253164" class="icon-dxe-0" data-fill-palette-color="quaternary" id="SvgjsSvg2442"><g fill="black"><g fill="black"><line fill-rule="evenodd" clip-rule="evenodd" x1="14.917" y1="22.236" x2="56.296" y2="95.38" fill="black"></line><rect x="-6.412" y="58.526" transform="matrix(0.4924 0.8704 -0.8704 0.4924 69.2593 -1.1396)" width="84.037" height="0.565" fill="black"></rect></g><g fill="black"><line fill-rule="evenodd" clip-rule="evenodd" x1="6.763" y1="37.748" x2="38.881" y2="94.199" fill="black"></line><rect x="-9.652" y="65.692" transform="matrix(0.4945 0.8692 -0.8692 0.4945 68.8793 13.513)" width="64.948" height="0.564" fill="black"></rect></g><g fill="black"><line fill-rule="evenodd" clip-rule="evenodd" x1="25.763" y1="12.567" x2="70.402" y2="90.856" fill="black"></line><rect x="3.022" y="51.429" transform="matrix(0.4953 0.8687 -0.8687 0.4953 69.1881 -15.6719)" width="90.121" height="0.564" fill="black"></rect></g><g fill="black"><line fill-rule="evenodd" clip-rule="evenodd" x1="39.04" y1="6.387" x2="82.534" y2="82.844" fill="black"></line><rect x="16.806" y="44.333" transform="matrix(0.4945 0.8692 -0.8692 0.4945 69.5104 -30.2815)" width="87.962" height="0.564" fill="black"></rect></g><g fill="black"><line fill-rule="evenodd" clip-rule="evenodd" x1="54.799" y1="5.293" x2="91.621" y2="69.552" fill="black"></line><rect x="36.179" y="37.14" transform="matrix(0.4972 0.8676 -0.8676 0.4972 69.2802 -44.7036)" width="74.061" height="0.565" fill="black"></rect></g><g fill="black"><line fill-rule="evenodd" clip-rule="evenodd" x1="75.579" y1="12.586" x2="95.811" y2="47.362" fill="black"></line><rect x="65.578" y="29.692" transform="matrix(0.5029 0.8644 -0.8644 0.5029 68.5113 -59.1708)" width="40.234" height="0.565" fill="black"></rect></g><g fill="black"><line fill-rule="evenodd" clip-rule="evenodd" x1="25.534" y1="12.567" x2="75.706" y2="12.567" fill="black"></line><rect x="25.534" y="12.285" width="50.172" height="0.565" fill="black"></rect></g><g fill="black"><line fill-rule="evenodd" clip-rule="evenodd" x1="10.974" y1="27.32" x2="89.456" y2="27.134" fill="black"></line><rect x="10.974" y="26.945" width="78.483" height="0.565" fill="black"></rect></g><g fill="black"><line fill-rule="evenodd" clip-rule="evenodd" x1="5.833" y1="41.534" x2="95.233" y2="41.534" fill="black"></line><rect x="5.833" y="41.252" width="89.4" height="0.565" fill="black"></rect></g><g fill="black"><line fill-rule="evenodd" clip-rule="evenodd" x1="5.709" y1="56.185" x2="95.291" y2="56.185" fill="black"></line><rect x="5.709" y="55.9" width="89.583" height="0.569" fill="black"></rect></g><g fill="black"><line fill-rule="evenodd" clip-rule="evenodd" x1="9.848" y1="70.712" x2="91.075" y2="70.606" fill="black"></line><rect x="9.848" y="70.374" width="81.227" height="0.57" fill="black"></rect></g><g fill="black"><line fill-rule="evenodd" clip-rule="evenodd" x1="21.646" y1="85.209" x2="79.573" y2="85.209" fill="black"></line><rect x="21.646" y="84.927" width="57.927" height="0.565" fill="black"></rect></g><g fill="black"><line fill-rule="evenodd" clip-rule="evenodd" x1="5.197" y1="48.892" x2="25.763" y2="12.338" fill="black"></line><rect x="15.198" y="9.644" transform="matrix(0.8712 0.4909 -0.4909 0.8712 17.0226 -3.6563)" width="0.565" height="41.942" fill="black"></rect></g><g fill="black"><line fill-rule="evenodd" clip-rule="evenodd" x1="9.441" y1="70.058" x2="46.402" y2="5.17" fill="black"></line><rect x="27.639" y="0.276" transform="matrix(0.869 0.4949 -0.4949 0.869 22.2727 -8.8887)" width="0.564" height="74.676" fill="black"></rect></g><g fill="black"><line fill-rule="evenodd" clip-rule="evenodd" x1="18.739" y1="82.841" x2="62.32" y2="6.543" fill="black"></line><rect x="40.247" y="0.758" transform="matrix(0.8682 0.4961 -0.4961 0.8682 27.5135 -14.2198)" width="0.564" height="87.867" fill="black"></rect></g><g fill="black"><line fill-rule="evenodd" clip-rule="evenodd" x1="30.396" y1="90.889" x2="75.615" y2="12.477" fill="black"></line><rect x="52.723" y="6.425" transform="matrix(0.866 0.5001 -0.5001 0.866 32.9518 -19.5809)" width="0.564" height="90.517" fill="black"></rect></g><g fill="black"><line fill-rule="evenodd" clip-rule="evenodd" x1="44.341" y1="95.257" x2="86.832" y2="22.847" fill="black"></line><rect x="65.305" y="17.074" transform="matrix(0.8622 0.5066 -0.5066 0.8622 38.9529 -25.0874)" width="0.564" height="83.956" fill="black"></rect></g><g fill="black"><line fill-rule="evenodd" clip-rule="evenodd" x1="61.862" y1="94.323" x2="94.176" y2="38.519" fill="black"></line><rect x="77.737" y="34.179" transform="matrix(0.8652 0.5014 -0.5014 0.8652 43.8154 -30.1648)" width="0.564" height="64.484" fill="black"></rect></g><g fill="black"><polygon fill-rule="evenodd" clip-rule="evenodd" points="84.254,27.384 92.41,41.609 67.145,85.232 25.843,12.586 42.453,12.312     67.337,56.188 84.254,27.384   " fill="black"></polygon><path d="M67.144 85.442L67.054 85.284 25.665 12.484 42.514 12.206 42.544 12.26 67.338 55.979 84.254 27.175 92.53 41.609 92.5 41.661zM26.021 12.687L67.146 85.022 92.289 41.608 84.253 27.592 67.335 56.397 67.246 56.239 42.393 12.417z" fill="black"></path></g></g></svg></g></svg></g></svg></g></svg></g></svg></g><defs><mask></mask></defs><mask><g id="SvgjsG2441"><svg viewBox="0 0 395.52 63.643032842496666" height="63.643032842496666" width="395.52"><g><svg viewBox="0 0 487.3316804374683 78.41642936708861" height="63.643032842496666" width="395.52"><g transform="matrix(1,0,0,1,91.81168043746834,10.837581772151903)"><svg viewBox="0 0 395.52 56.741265822784804" height="56.741265822784804" width="395.52"><g id="SvgjsG2440"><svg viewBox="0 0 395.52 56.741265822784804" height="56.741265822784804" width="395.52" id="SvgjsSvg2439"><g><svg viewBox="0 0 395.52 56.741265822784804" height="56.741265822784804" width="395.52"><g transform="matrix(1,0,0,1,0,0)"><svg width="395.52" viewBox="2.88 -37.94 266.14 38.18" height="56.741265822784804" data-palette-color="url(#fda52103-e928-4fc5-9b25-cd42090d9a02)"><path d="M12.55 0.2L2.88-27.54 9.57-27.54 15.38-7.96 15.38 0.2 12.55 0.2ZM17.38-7.96L23.24-27.54 29.88-27.54 20.21 0.2 17.38 0.2 17.38-7.96ZM49.27-23.19L49.27-27.78Q51.9-27.54 54.03-26.37 56.15-25.2 57.66-23.34 59.18-21.48 59.98-19.09 60.79-16.7 60.79-14.11L60.79-14.11Q60.79-12.94 60.64-11.77L60.64-11.77 43.89-11.77 43.89-16.06 55.17-16.06Q55.17-17.33 54.76-18.51 54.34-19.68 53.54-20.68 52.73-21.68 51.66-22.36 50.58-23.05 49.27-23.19L49.27-23.19ZM49.07-4.59L49.07-4.59Q49.61-4.59 50.41-4.71 51.22-4.83 52.12-5.15 53.02-5.47 53.93-5.96 54.83-6.45 55.52-7.13L55.52-7.13 57.66-3.86Q56.05-1.86 53.9-0.83 51.76 0.2 48.44 0.2L48.44 0.2Q45.75 0.2 43.41-0.9 41.06-2 39.4-3.91 37.74-5.81 36.77-8.35 35.79-10.89 35.79-13.82L35.79-13.82Q35.79-16.6 36.69-19.09 37.6-21.58 39.16-23.46 40.72-25.34 42.8-26.51 44.87-27.69 47.26-27.83L47.26-27.83 47.26-23.14Q45.46-22.8 44.28-21.68 43.11-20.56 42.45-19.12 41.79-17.68 41.53-16.16 41.26-14.65 41.26-13.57L41.26-13.57Q41.26-11.67 41.72-10.03 42.19-8.4 43.16-7.2 44.14-6.01 45.58-5.3 47.02-4.59 49.07-4.59ZM89.84-23.58L87.2-20.41Q86.47-21.29 85.18-22.05 83.88-22.8 81.73-22.95L81.73-22.95 81.73-27.64Q84.42-27.49 86.35-26.49 88.28-25.49 89.84-23.58L89.84-23.58ZM81.73 0.2L81.73-4.64Q83.49-4.83 84.74-5.49 85.98-6.15 87.1-7.03L87.1-7.03 89.3-3.86Q87.79-1.95 86.03-0.95 84.27 0.05 81.73 0.2L81.73 0.2ZM68.11-13.77L68.11-13.77Q68.11-16.55 68.92-18.99 69.72-21.44 71.28-23.29 72.85-25.15 74.97-26.29 77.09-27.44 79.73-27.64L79.73-27.64 79.73-22.9Q77.29-22.36 75.83-19.9 74.36-17.43 74.36-13.92L74.36-13.92Q74.36-12.11 74.73-10.52 75.09-8.94 75.78-7.71 76.46-6.49 77.46-5.66 78.46-4.83 79.73-4.64L79.73-4.64 79.73 0.2Q77.05 0.05 74.9-1.1 72.75-2.25 71.24-4.13 69.72-6.01 68.92-8.5 68.11-10.99 68.11-13.77ZM105.31-23.54L105.31-8.35Q105.31-6.69 105.75-5.76 106.19-4.83 107-4.35 107.81-3.86 108.81-3.74 109.81-3.61 110.93-3.61L110.93-3.61 110.93 0Q110.3 0.1 109.66 0.15L109.66 0.15Q109.12 0.2 108.37 0.22 107.61 0.24 106.88 0.24L106.88 0.24Q106.14 0.24 105.39 0.2 104.63 0.15 104.09 0.05L104.09 0.05Q102.43-0.24 101.51-1.39 100.58-2.54 100.11-3.93 99.65-5.32 99.53-6.64 99.41-7.96 99.41-8.69L99.41-8.69 99.41-23.54 95.79-23.54 95.79-27.54 99.41-27.54 99.41-35.35 105.31-35.35 105.31-27.54 109.71-27.54 109.71-23.54 105.31-23.54ZM130.8-23.1L130.8-27.69Q133.49-27.54 135.68-26.39 137.88-25.24 139.37-23.36 140.86-21.48 141.69-18.99 142.52-16.5 142.52-13.67L142.52-13.67Q142.52-10.84 141.66-8.37 140.81-5.91 139.3-4.08 137.78-2.25 135.59-1.12 133.39 0 130.8 0.2L130.8 0.2 130.8-4.49Q133.24-5.03 134.78-7.57 136.32-10.11 136.32-13.67L136.32-13.67Q136.32-15.48 135.95-17.07 135.59-18.65 134.85-19.92 134.12-21.19 133.1-22.02 132.07-22.85 130.8-23.1L130.8-23.1ZM117.18-13.77L117.18-13.77Q117.18-16.6 118.01-19.04 118.84-21.48 120.38-23.32 121.91-25.15 124.06-26.27 126.21-27.39 128.8-27.64L128.8-27.64 128.8-23.1Q126.36-22.56 124.89-20.02 123.43-17.48 123.43-13.92L123.43-13.92Q123.43-12.11 123.79-10.5 124.16-8.89 124.84-7.62 125.53-6.35 126.53-5.52 127.53-4.69 128.8-4.49L128.8-4.49 128.8 0.2Q126.11 0 123.96-1.15 121.82-2.29 120.3-4.15 118.79-6.01 117.98-8.5 117.18-10.99 117.18-13.77ZM150.18-27.54L155.46-27.54 156.09-24.71 156.09-9.77 156.09-9.67 156.09 0 150.18 0 150.18-27.54ZM158.09-21.34L158.09-26.32Q159.31-27 161.02-27.37 162.73-27.73 165.66-27.73L165.66-27.73 165.66-21.58Q164.29-21.97 162.34-22.02L162.34-22.02Q161.27-22.02 160.17-21.85 159.07-21.68 158.09-21.34L158.09-21.34ZM177.82-37.94L177.82-8.4Q177.82-6.74 178.26-5.79 178.7-4.83 179.48-4.37 180.26-3.91 181.26-3.76 182.26-3.61 183.43-3.61L183.43-3.61 183.43 0Q182.8 0.1 182.11 0.15L182.11 0.15Q181.58 0.2 180.84 0.22 180.11 0.24 179.38 0.24L179.38 0.24Q178.65 0.24 177.91 0.2 177.18 0.15 176.6 0.05L176.6 0.05Q174.94-0.29 174.01-1.42 173.08-2.54 172.59-3.93 172.1-5.32 171.98-6.64 171.86-7.96 171.86-8.69L171.86-8.69 171.86-9.28 171.86-37.94 177.82-37.94ZM194.46-8.3L194.46-8.3Q194.46-6.1 195.37-5.03 196.27-3.96 197.98-3.76L197.98-3.76 197.98 0.2Q197.79 0.24 197.35 0.24L197.35 0.24Q195.69 0.24 194.15-0.2 192.61-0.63 191.44-1.61 190.27-2.59 189.61-4.2 188.95-5.81 188.95-8.15L188.95-8.15Q188.95-10.4 189.9-12.04 190.85-13.67 192.34-14.72 193.83-15.77 195.73-16.28 197.64-16.8 199.59-16.8L199.59-16.8 201.74-16.8 201.74-13.33 200.67-13.33Q199.69-13.33 198.62-13.13 197.54-12.94 196.61-12.4 195.69-11.87 195.08-10.86 194.46-9.86 194.46-8.3ZM209.65-8.54L209.65-8.15Q209.65-7.76 209.7-7.01 209.75-6.25 209.89-5.47 210.04-4.69 210.36-4.05 210.68-3.42 211.21-3.22L211.21-3.22 209.65 0.05Q209.02 0.05 208.31-0.24 207.6-0.54 206.94-1.07 206.28-1.61 205.82-2.27 205.35-2.93 205.11-3.71L205.11-3.71Q204.62-2.49 203.18-1.54 201.74-0.59 199.98-0.15L199.98-0.15 199.98-3.86Q201.15-4.1 202.11-4.81 203.06-5.52 203.74-6.49L203.74-6.49 203.74-16.8Q203.74-19.19 203.5-20.61 203.25-22.02 202.67-22.68 202.08-23.34 201.23-23.51 200.37-23.68 199.2-23.68L199.2-23.68Q198.13-23.68 197.17-23.41 196.22-23.14 195.42-22.78 194.61-22.41 194-21.97 193.39-21.53 193.1-21.29L193.1-21.29 190.9-24.66Q191.39-25.2 192.37-25.76 193.34-26.32 194.61-26.76 195.88-27.2 197.37-27.47 198.86-27.73 200.47-27.73L200.47-27.73Q201.94-27.73 203.33-27.44 204.72-27.15 205.87-26.46 207.01-25.78 207.87-24.63 208.72-23.49 209.06-21.78L209.06-21.78Q209.41-20.07 209.53-18.33 209.65-16.6 209.65-14.89L209.65-14.89 209.65-8.54ZM219.22 0L219.22-37.94 225.13-37.94 225.13-3.27Q225.08-2.59 224.98-1.71 224.88-0.83 224.83 0L224.83 0 219.22 0ZM243.29-19.19L243.29-19.19Q243.88-16.94 243.88-14.26L243.88-14.26Q243.88-11.47 243.22-8.84 242.56-6.2 241.22-4.17 239.87-2.15 237.85-0.95 235.82 0.24 233.09 0.24L233.09 0.24Q231.38 0.24 229.81-0.15 228.25-0.54 227.13-1.22L227.13-1.22 227.13-6.3Q227.86-5.47 228.86-4.93 229.86-4.39 231.08-4.39L231.08-4.39Q232.55-4.39 233.74-5.13 234.94-5.86 235.8-7.1 236.65-8.35 237.16-10.06 237.68-11.77 237.68-13.72L237.68-13.72Q237.68-15.63 237.21-17.33 236.75-19.04 235.94-20.36 235.14-21.68 233.96-22.46 232.79-23.24 231.33-23.24L231.33-23.24Q230.06-23.24 229.01-22.73 227.96-22.22 227.13-21.24L227.13-21.24 227.13-26.46Q228.25-27.1 229.62-27.44 230.99-27.78 232.45-27.78L232.45-27.78Q234.06-27.78 235.72-27.34 237.38-26.9 238.82-25.88 240.26-24.85 241.46-23.19 242.66-21.53 243.29-19.19ZM249.88-19.68L249.88-19.68Q249.88-21.53 250.56-23.02 251.25-24.51 252.47-25.56 253.69-26.61 255.23-27.22 256.76-27.83 258.42-27.98L258.42-27.98 258.42-23.1Q257.16-22.85 256.45-22.07 255.74-21.29 255.74-19.87L255.74-19.87Q255.74-18.7 256.5-17.99 257.25-17.29 258.42-16.75L258.42-16.75 258.42-11.52Q257.59-11.77 256.74-12.08 255.89-12.4 255.06-12.79L255.06-12.79Q252.47-14.16 251.17-15.67 249.88-17.19 249.88-19.68ZM268.09-25.78L266.19-21.73Q264.87-22.41 263.38-22.75 261.89-23.1 260.43-23.19L260.43-23.19 260.43-28.03Q262.62-27.93 264.48-27.42 266.33-26.9 268.09-25.78L268.09-25.78ZM249.98-2.2L252.47-6.15Q253.44-5.47 254.79-4.88 256.13-4.3 258.18-4.3L258.18-4.3 258.42-4.3 258.42 0.24Q257.2 0.24 256.18 0.17 255.15 0.1 254.15-0.17 253.15-0.44 252.13-0.93 251.1-1.42 249.98-2.2L249.98-2.2ZM260.43-10.79L260.43-15.97Q261.89-15.48 263.41-14.89 264.92-14.31 266.16-13.43 267.41-12.55 268.21-11.25 269.02-9.96 269.02-8.01L269.02-8.01Q269.02-6.1 268.34-4.69 267.65-3.27 266.51-2.25 265.36-1.22 263.8-0.63 262.23-0.05 260.43 0.15L260.43 0.15 260.43-4.49Q262.09-4.79 262.99-5.54 263.89-6.3 263.89-7.57L263.89-7.57Q263.89-8.84 262.89-9.55 261.89-10.25 260.43-10.79L260.43-10.79Z" opacity="1" transform="matrix(1,0,0,1,0,0)" fill="black" class="wordmark-text-0" id="SvgjsPath2438"></path></svg></g></svg></g></svg></g></svg></g><g><svg viewBox="0 0 78.4164293670886 78.41642936708861" height="78.41642936708861" width="78.4164293670886"><g><svg></svg></g><g id="SvgjsG2437"><svg viewBox="0 0 78.4164293670886 78.41642936708861" height="78.41642936708861" width="78.4164293670886"><g><path transform="scale(0.78416,0.78416)" d="M30 100c-16.569 0-30-13.431-30-30v-40c0-16.569 13.431-30 30-30h40c16.569 0 30 13.431 30 30v40c0 16.569-13.431 30-30 30z" fill="black" fill-rule="nonzero" stroke="none" stroke-width="1" stroke-linecap="butt" stroke-linejoin="miter" stroke-miterlimit="10" stroke-dasharray="" stroke-dashoffset="0" font-family="none" font-weight="none" font-size="none" text-anchor="none" style="mix-blend-mode: normal"></path></g><g transform="matrix(1,0,0,1,15.683285873417717,15.845147386647174)"><svg viewBox="0 0 47.049857620253164 46.726134593794264" height="46.726134593794264" width="47.049857620253164"><g><svg xmlns="http://www.w3.org/2000/svg" xmlns:xlink="http://www.w3.org/1999/xlink" version="1.1" x="0" y="0" viewBox="4.939530200000002 5.0296851 91.11885980000001 90.4919233" enable-background="new 0 0 100 100" xml:space="preserve" height="46.726134593794264" width="47.049857620253164" class="icon-dxe-0" data-fill-palette-color="quaternary" id="SvgjsSvg2436"><g fill="black"><g fill="black"><line fill-rule="evenodd" clip-rule="evenodd" x1="14.917" y1="22.236" x2="56.296" y2="95.38" fill="black"></line><rect x="-6.412" y="58.526" transform="matrix(0.4924 0.8704 -0.8704 0.4924 69.2593 -1.1396)" width="84.037" height="0.565" fill="black"></rect></g><g fill="black"><line fill-rule="evenodd" clip-rule="evenodd" x1="6.763" y1="37.748" x2="38.881" y2="94.199" fill="black"></line><rect x="-9.652" y="65.692" transform="matrix(0.4945 0.8692 -0.8692 0.4945 68.8793 13.513)" width="64.948" height="0.564" fill="black"></rect></g><g fill="black"><line fill-rule="evenodd" clip-rule="evenodd" x1="25.763" y1="12.567" x2="70.402" y2="90.856" fill="black"></line><rect x="3.022" y="51.429" transform="matrix(0.4953 0.8687 -0.8687 0.4953 69.1881 -15.6719)" width="90.121" height="0.564" fill="black"></rect></g><g fill="black"><line fill-rule="evenodd" clip-rule="evenodd" x1="39.04" y1="6.387" x2="82.534" y2="82.844" fill="black"></line><rect x="16.806" y="44.333" transform="matrix(0.4945 0.8692 -0.8692 0.4945 69.5104 -30.2815)" width="87.962" height="0.564" fill="black"></rect></g><g fill="black"><line fill-rule="evenodd" clip-rule="evenodd" x1="54.799" y1="5.293" x2="91.621" y2="69.552" fill="black"></line><rect x="36.179" y="37.14" transform="matrix(0.4972 0.8676 -0.8676 0.4972 69.2802 -44.7036)" width="74.061" height="0.565" fill="black"></rect></g><g fill="black"><line fill-rule="evenodd" clip-rule="evenodd" x1="75.579" y1="12.586" x2="95.811" y2="47.362" fill="black"></line><rect x="65.578" y="29.692" transform="matrix(0.5029 0.8644 -0.8644 0.5029 68.5113 -59.1708)" width="40.234" height="0.565" fill="black"></rect></g><g fill="black"><line fill-rule="evenodd" clip-rule="evenodd" x1="25.534" y1="12.567" x2="75.706" y2="12.567" fill="black"></line><rect x="25.534" y="12.285" width="50.172" height="0.565" fill="black"></rect></g><g fill="black"><line fill-rule="evenodd" clip-rule="evenodd" x1="10.974" y1="27.32" x2="89.456" y2="27.134" fill="black"></line><rect x="10.974" y="26.945" width="78.483" height="0.565" fill="black"></rect></g><g fill="black"><line fill-rule="evenodd" clip-rule="evenodd" x1="5.833" y1="41.534" x2="95.233" y2="41.534" fill="black"></line><rect x="5.833" y="41.252" width="89.4" height="0.565" fill="black"></rect></g><g fill="black"><line fill-rule="evenodd" clip-rule="evenodd" x1="5.709" y1="56.185" x2="95.291" y2="56.185" fill="black"></line><rect x="5.709" y="55.9" width="89.583" height="0.569" fill="black"></rect></g><g fill="black"><line fill-rule="evenodd" clip-rule="evenodd" x1="9.848" y1="70.712" x2="91.075" y2="70.606" fill="black"></line><rect x="9.848" y="70.374" width="81.227" height="0.57" fill="black"></rect></g><g fill="black"><line fill-rule="evenodd" clip-rule="evenodd" x1="21.646" y1="85.209" x2="79.573" y2="85.209" fill="black"></line><rect x="21.646" y="84.927" width="57.927" height="0.565" fill="black"></rect></g><g fill="black"><line fill-rule="evenodd" clip-rule="evenodd" x1="5.197" y1="48.892" x2="25.763" y2="12.338" fill="black"></line><rect x="15.198" y="9.644" transform="matrix(0.8712 0.4909 -0.4909 0.8712 17.0226 -3.6563)" width="0.565" height="41.942" fill="black"></rect></g><g fill="black"><line fill-rule="evenodd" clip-rule="evenodd" x1="9.441" y1="70.058" x2="46.402" y2="5.17" fill="black"></line><rect x="27.639" y="0.276" transform="matrix(0.869 0.4949 -0.4949 0.869 22.2727 -8.8887)" width="0.564" height="74.676" fill="black"></rect></g><g fill="black"><line fill-rule="evenodd" clip-rule="evenodd" x1="18.739" y1="82.841" x2="62.32" y2="6.543" fill="black"></line><rect x="40.247" y="0.758" transform="matrix(0.8682 0.4961 -0.4961 0.8682 27.5135 -14.2198)" width="0.564" height="87.867" fill="black"></rect></g><g fill="black"><line fill-rule="evenodd" clip-rule="evenodd" x1="30.396" y1="90.889" x2="75.615" y2="12.477" fill="black"></line><rect x="52.723" y="6.425" transform="matrix(0.866 0.5001 -0.5001 0.866 32.9518 -19.5809)" width="0.564" height="90.517" fill="black"></rect></g><g fill="black"><line fill-rule="evenodd" clip-rule="evenodd" x1="44.341" y1="95.257" x2="86.832" y2="22.847" fill="black"></line><rect x="65.305" y="17.074" transform="matrix(0.8622 0.5066 -0.5066 0.8622 38.9529 -25.0874)" width="0.564" height="83.956" fill="black"></rect></g><g fill="black"><line fill-rule="evenodd" clip-rule="evenodd" x1="61.862" y1="94.323" x2="94.176" y2="38.519" fill="black"></line><rect x="77.737" y="34.179" transform="matrix(0.8652 0.5014 -0.5014 0.8652 43.8154 -30.1648)" width="0.564" height="64.484" fill="black"></rect></g><g fill="black"><polygon fill-rule="evenodd" clip-rule="evenodd" points="84.254,27.384 92.41,41.609 67.145,85.232 25.843,12.586 42.453,12.312     67.337,56.188 84.254,27.384   " fill="black"></polygon><path d="M67.144 85.442L67.054 85.284 25.665 12.484 42.514 12.206 42.544 12.26 67.338 55.979 84.254 27.175 92.53 41.609 92.5 41.661zM26.021 12.687L67.146 85.022 92.289 41.608 84.253 27.592 67.335 56.397 67.246 56.239 42.393 12.417z" fill="black"></path></g></g></svg></g></svg></g></svg></g></svg></g></svg></g><defs><mask></mask></defs></svg><rect width="395.52" height="63.643032842496666" fill="black" stroke="none" visibility="hidden"></rect></g></mask></svg><rect width="395.52" height="63.643032842496666" fill="black" stroke="none" visibility="hidden"></rect></g></mask><linearGradient x1="0" x2="1" y1="0.548" y2="0.55" id="a2f43aaf-70d7-4682-a889-490360c1b73c"><stop stop-color="#ff6cab" offset="0"></stop><stop stop-color="#7366ff" offset="1"></stop></linearGradient><rect width="395.52" height="63.643032842496666" fill="url(#a2f43aaf-70d7-4682-a889-490360c1b73c)" mask="url(#1cc84d78-0fac-4fac-9485-68b2de555619)" data-fill-palette-color="accent"></rect></svg><rect width="395.52" height="63.643032842496666" fill="none" stroke="none" visibility="hidden"></rect></g></svg></g></svg>