<svg xmlns="http://www.w3.org/2000/svg" version="1.1" xmlns:xlink="http://www.w3.org/1999/xlink" xmlns:svgjs="http://svgjs.dev/svgjs" width="128" height="128" viewBox="0 0 128 128"><g transform="matrix(0.8046875,0,0,0.8046875,12.221578124999994,13.21079450925869)"><svg viewBox="0 0 96 95" data-background-color="#000000" preserveAspectRatio="xMidYMid meet" height="126" width="128" xmlns="http://www.w3.org/2000/svg" xmlns:xlink="http://www.w3.org/1999/xlink"><g id="tight-bounds" transform="matrix(1,0,0,1,0.25950000000000273,0.0879749396990519)"><svg viewBox="0 0 95.48099999999998 94.8240501206019" height="94.8240501206019" width="95.48099999999998"><g><svg viewBox="0 0 95.48099999999998 94.8240501206019" height="94.8240501206019" width="95.48099999999998"><g><svg viewBox="0 0 95.48099999999998 94.8240501206019" height="94.8240501206019" width="95.48099999999998"><g id="textblocktransform"><svg viewBox="0 0 95.48099999999998 94.8240501206019" height="94.8240501206019" width="95.48099999999998" id="textblock"><g><svg viewBox="0 0 95.48099999999998 94.8240501206019" height="94.8240501206019" width="95.48099999999998"><g><svg viewBox="0 0 95.48099999999998 94.8240501206019" height="94.8240501206019" width="95.48099999999998"><g><svg xmlns="http://www.w3.org/2000/svg" xmlns:xlink="http://www.w3.org/1999/xlink" version="1.1" x="0" y="0" viewBox="4.939530200000002 5.0296851 91.11885980000001 90.4919233" enable-background="new 0 0 100 100" xml:space="preserve" height="94.8240501206019" width="95.48099999999998" class="icon-icon-0" data-fill-palette-color="accent" id="icon-0"></svg></g></svg></g></svg></g></svg></g></svg></g></svg></g><defs></defs><mask id="25333f34-61c1-49de-8fad-400eb5e44797"><g id="SvgjsG2507"><svg viewBox="0 0 95.48099999999998 94.8240501206019" height="94.8240501206019" width="95.48099999999998"><g><svg viewBox="0 0 95.48099999999998 94.8240501206019" height="94.8240501206019" width="95.48099999999998"><g><svg viewBox="0 0 95.48099999999998 94.8240501206019" height="94.8240501206019" width="95.48099999999998"><g id="SvgjsG2506"><svg viewBox="0 0 95.48099999999998 94.8240501206019" height="94.8240501206019" width="95.48099999999998" id="SvgjsSvg2505"><g><svg viewBox="0 0 95.48099999999998 94.8240501206019" height="94.8240501206019" width="95.48099999999998"><g><svg viewBox="0 0 95.48099999999998 94.8240501206019" height="94.8240501206019" width="95.48099999999998"><g><svg xmlns="http://www.w3.org/2000/svg" xmlns:xlink="http://www.w3.org/1999/xlink" version="1.1" x="0" y="0" viewBox="4.939530200000002 5.0296851 91.11885980000001 90.4919233" enable-background="new 0 0 100 100" xml:space="preserve" height="94.8240501206019" width="95.48099999999998" class="icon-icon-0" data-fill-palette-color="accent" id="SvgjsSvg2504"><g fill="white"><g fill="white"><line fill-rule="evenodd" clip-rule="evenodd" x1="14.917" y1="22.236" x2="56.296" y2="95.38" fill="white"></line><rect x="-6.412" y="58.526" transform="matrix(0.4924 0.8704 -0.8704 0.4924 69.2593 -1.1396)" width="84.037" height="0.565" fill="white"></rect></g><g fill="white"><line fill-rule="evenodd" clip-rule="evenodd" x1="6.763" y1="37.748" x2="38.881" y2="94.199" fill="white"></line><rect x="-9.652" y="65.692" transform="matrix(0.4945 0.8692 -0.8692 0.4945 68.8793 13.513)" width="64.948" height="0.564" fill="white"></rect></g><g fill="white"><line fill-rule="evenodd" clip-rule="evenodd" x1="25.763" y1="12.567" x2="70.402" y2="90.856" fill="white"></line><rect x="3.022" y="51.429" transform="matrix(0.4953 0.8687 -0.8687 0.4953 69.1881 -15.6719)" width="90.121" height="0.564" fill="white"></rect></g><g fill="white"><line fill-rule="evenodd" clip-rule="evenodd" x1="39.04" y1="6.387" x2="82.534" y2="82.844" fill="white"></line><rect x="16.806" y="44.333" transform="matrix(0.4945 0.8692 -0.8692 0.4945 69.5104 -30.2815)" width="87.962" height="0.564" fill="white"></rect></g><g fill="white"><line fill-rule="evenodd" clip-rule="evenodd" x1="54.799" y1="5.293" x2="91.621" y2="69.552" fill="white"></line><rect x="36.179" y="37.14" transform="matrix(0.4972 0.8676 -0.8676 0.4972 69.2802 -44.7036)" width="74.061" height="0.565" fill="white"></rect></g><g fill="white"><line fill-rule="evenodd" clip-rule="evenodd" x1="75.579" y1="12.586" x2="95.811" y2="47.362" fill="white"></line><rect x="65.578" y="29.692" transform="matrix(0.5029 0.8644 -0.8644 0.5029 68.5113 -59.1708)" width="40.234" height="0.565" fill="white"></rect></g><g fill="white"><line fill-rule="evenodd" clip-rule="evenodd" x1="25.534" y1="12.567" x2="75.706" y2="12.567" fill="white"></line><rect x="25.534" y="12.285" width="50.172" height="0.565" fill="white"></rect></g><g fill="white"><line fill-rule="evenodd" clip-rule="evenodd" x1="10.974" y1="27.32" x2="89.456" y2="27.134" fill="white"></line><rect x="10.974" y="26.945" width="78.483" height="0.565" fill="white"></rect></g><g fill="white"><line fill-rule="evenodd" clip-rule="evenodd" x1="5.833" y1="41.534" x2="95.233" y2="41.534" fill="white"></line><rect x="5.833" y="41.252" width="89.4" height="0.565" fill="white"></rect></g><g fill="white"><line fill-rule="evenodd" clip-rule="evenodd" x1="5.709" y1="56.185" x2="95.291" y2="56.185" fill="white"></line><rect x="5.709" y="55.9" width="89.583" height="0.569" fill="white"></rect></g><g fill="white"><line fill-rule="evenodd" clip-rule="evenodd" x1="9.848" y1="70.712" x2="91.075" y2="70.606" fill="white"></line><rect x="9.848" y="70.374" width="81.227" height="0.57" fill="white"></rect></g><g fill="white"><line fill-rule="evenodd" clip-rule="evenodd" x1="21.646" y1="85.209" x2="79.573" y2="85.209" fill="white"></line><rect x="21.646" y="84.927" width="57.927" height="0.565" fill="white"></rect></g><g fill="white"><line fill-rule="evenodd" clip-rule="evenodd" x1="5.197" y1="48.892" x2="25.763" y2="12.338" fill="white"></line><rect x="15.198" y="9.644" transform="matrix(0.8712 0.4909 -0.4909 0.8712 17.0226 -3.6563)" width="0.565" height="41.942" fill="white"></rect></g><g fill="white"><line fill-rule="evenodd" clip-rule="evenodd" x1="9.441" y1="70.058" x2="46.402" y2="5.17" fill="white"></line><rect x="27.639" y="0.276" transform="matrix(0.869 0.4949 -0.4949 0.869 22.2727 -8.8887)" width="0.564" height="74.676" fill="white"></rect></g><g fill="white"><line fill-rule="evenodd" clip-rule="evenodd" x1="18.739" y1="82.841" x2="62.32" y2="6.543" fill="white"></line><rect x="40.247" y="0.758" transform="matrix(0.8682 0.4961 -0.4961 0.8682 27.5135 -14.2198)" width="0.564" height="87.867" fill="white"></rect></g><g fill="white"><line fill-rule="evenodd" clip-rule="evenodd" x1="30.396" y1="90.889" x2="75.615" y2="12.477" fill="white"></line><rect x="52.723" y="6.425" transform="matrix(0.866 0.5001 -0.5001 0.866 32.9518 -19.5809)" width="0.564" height="90.517" fill="white"></rect></g><g fill="white"><line fill-rule="evenodd" clip-rule="evenodd" x1="44.341" y1="95.257" x2="86.832" y2="22.847" fill="white"></line><rect x="65.305" y="17.074" transform="matrix(0.8622 0.5066 -0.5066 0.8622 38.9529 -25.0874)" width="0.564" height="83.956" fill="white"></rect></g><g fill="white"><line fill-rule="evenodd" clip-rule="evenodd" x1="61.862" y1="94.323" x2="94.176" y2="38.519" fill="white"></line><rect x="77.737" y="34.179" transform="matrix(0.8652 0.5014 -0.5014 0.8652 43.8154 -30.1648)" width="0.564" height="64.484" fill="white"></rect></g><g fill="white"><polygon fill-rule="evenodd" clip-rule="evenodd" points="84.254,27.384 92.41,41.609 67.145,85.232 25.843,12.586 42.453,12.312     67.337,56.188 84.254,27.384   " fill="white"></polygon><path d="M67.144 85.442L67.054 85.284 25.665 12.484 42.514 12.206 42.544 12.26 67.338 55.979 84.254 27.175 92.53 41.609 92.5 41.661zM26.021 12.687L67.146 85.022 92.289 41.608 84.253 27.592 67.335 56.397 67.246 56.239 42.393 12.417z" fill="white"></path></g></g></svg></g></svg></g></svg></g></svg></g></svg></g></svg></g><defs><mask></mask></defs></svg><rect width="95.48099999999998" height="94.8240501206019" fill="black" stroke="none" visibility="hidden"></rect></g></mask><linearGradient x1="0" x2="1" y1="0.548" y2="0.55" id="bddcb17b-6099-414b-99e9-7a69be699d41"><stop stop-color="#ff6cab" offset="0"></stop><stop stop-color="#7366ff" offset="1"></stop></linearGradient><rect width="95.48099999999998" height="94.8240501206019" fill="url(#bddcb17b-6099-414b-99e9-7a69be699d41)" mask="url(#25333f34-61c1-49de-8fad-400eb5e44797)" data-fill-palette-color="accent"></rect></svg><rect width="95.48099999999998" height="94.8240501206019" fill="none" stroke="none" visibility="hidden"></rect></g></svg></g></svg>